<mxfile host="app.diagrams.net" modified="2023-09-12T07:01:59.010Z" agent="Mozilla/5.0 (Macintosh; Intel Mac OS X 10_15_7) AppleWebKit/537.36 (KHTML, like Gecko) Chrome/116.0.0.0 Safari/537.36 Edg/116.0.1938.62" etag="yurcfkkEUZCXCy5YNfDk" version="21.3.2" type="github">
  <diagram name="第 1 页" id="bU3ntaRcGvF-SIQQ_P3n">
    <mxGraphModel dx="881" dy="492" grid="1" gridSize="10" guides="1" tooltips="1" connect="1" arrows="1" fold="1" page="1" pageScale="1" pageWidth="827" pageHeight="1169" math="0" shadow="0">
      <root>
        <mxCell id="0" />
        <mxCell id="1" parent="0" />
        <mxCell id="I1iMSRY1QSNzKkPSF8va-72" value="" style="rounded=0;whiteSpace=wrap;html=1;fontFamily=Helvetica;fontSize=11;fontColor=#000000;strokeColor=#000000;" parent="1" vertex="1">
          <mxGeometry x="60" y="190" width="620" height="350" as="geometry" />
        </mxCell>
        <mxCell id="I1iMSRY1QSNzKkPSF8va-18" value="" style="rounded=1;whiteSpace=wrap;html=1;fontFamily=Times New Roman;fontColor=#000000;strokeColor=#000000;" parent="1" vertex="1">
          <mxGeometry x="520" y="225" width="120" height="40" as="geometry" />
        </mxCell>
        <mxCell id="I1iMSRY1QSNzKkPSF8va-23" value="Consumer1" style="rounded=1;whiteSpace=wrap;html=1;strokeColor=#000000;fontFamily=Times New Roman;fontColor=#000000;" parent="1" vertex="1">
          <mxGeometry x="530" y="230" width="100" height="30" as="geometry" />
        </mxCell>
        <mxCell id="I1iMSRY1QSNzKkPSF8va-26" value="Consumer1" style="rounded=1;whiteSpace=wrap;html=1;strokeColor=#000000;fontFamily=Times New Roman;fontColor=#000000;" parent="1" vertex="1">
          <mxGeometry x="530" y="230" width="100" height="30" as="geometry" />
        </mxCell>
        <mxCell id="I1iMSRY1QSNzKkPSF8va-27" value="Consumer1" style="rounded=1;whiteSpace=wrap;html=1;strokeColor=#000000;fontFamily=Times New Roman;fontColor=#000000;" parent="1" vertex="1">
          <mxGeometry x="530" y="230" width="100" height="30" as="geometry" />
        </mxCell>
        <mxCell id="I1iMSRY1QSNzKkPSF8va-19" value="&lt;font style=&quot;font-size: 15px;&quot;&gt;Consumer Group A&lt;/font&gt;" style="text;html=1;align=center;verticalAlign=middle;resizable=0;points=[];autosize=1;strokeColor=none;fillColor=none;fontStyle=0;fontFamily=Times New Roman;fontColor=#000000;" parent="1" vertex="1">
          <mxGeometry x="510" y="190" width="140" height="30" as="geometry" />
        </mxCell>
        <mxCell id="I1iMSRY1QSNzKkPSF8va-21" value="" style="rounded=1;whiteSpace=wrap;html=1;fontFamily=Times New Roman;fontColor=#000000;strokeColor=#000000;" parent="1" vertex="1">
          <mxGeometry x="520" y="305" width="120" height="75" as="geometry" />
        </mxCell>
        <mxCell id="I1iMSRY1QSNzKkPSF8va-22" value="&lt;font style=&quot;font-size: 15px;&quot;&gt;Consumer Group B&lt;/font&gt;" style="text;html=1;align=center;verticalAlign=middle;resizable=0;points=[];autosize=1;strokeColor=none;fillColor=none;fontStyle=0;fontFamily=Times New Roman;fontColor=#000000;" parent="1" vertex="1">
          <mxGeometry x="510" y="270" width="140" height="30" as="geometry" />
        </mxCell>
        <mxCell id="I1iMSRY1QSNzKkPSF8va-24" value="Consumer1" style="rounded=1;whiteSpace=wrap;html=1;strokeColor=#000000;fontFamily=Times New Roman;fontColor=#000000;" parent="1" vertex="1">
          <mxGeometry x="530" y="310" width="100" height="30" as="geometry" />
        </mxCell>
        <mxCell id="I1iMSRY1QSNzKkPSF8va-25" value="&lt;font&gt;Consumer2&lt;/font&gt;" style="rounded=1;whiteSpace=wrap;html=1;strokeColor=#000000;fontFamily=Times New Roman;fontColor=#000000;" parent="1" vertex="1">
          <mxGeometry x="530" y="345" width="100" height="30" as="geometry" />
        </mxCell>
        <mxCell id="I1iMSRY1QSNzKkPSF8va-29" value="" style="rounded=1;whiteSpace=wrap;html=1;fontFamily=Times New Roman;fontColor=#000000;strokeColor=#000000;" parent="1" vertex="1">
          <mxGeometry x="520" y="425" width="120" height="110" as="geometry" />
        </mxCell>
        <mxCell id="I1iMSRY1QSNzKkPSF8va-30" value="&lt;font style=&quot;font-size: 15px;&quot;&gt;Consumer Group C&lt;/font&gt;" style="text;html=1;align=center;verticalAlign=middle;resizable=0;points=[];autosize=1;strokeColor=none;fillColor=none;fontStyle=0;fontFamily=Times New Roman;fontColor=#000000;" parent="1" vertex="1">
          <mxGeometry x="510" y="390" width="140" height="30" as="geometry" />
        </mxCell>
        <mxCell id="I1iMSRY1QSNzKkPSF8va-31" value="Consumer1" style="rounded=1;whiteSpace=wrap;html=1;strokeColor=#000000;fontFamily=Times New Roman;fontColor=#000000;" parent="1" vertex="1">
          <mxGeometry x="530" y="430" width="100" height="30" as="geometry" />
        </mxCell>
        <mxCell id="I1iMSRY1QSNzKkPSF8va-32" value="Consumer2" style="rounded=1;whiteSpace=wrap;html=1;strokeColor=#000000;fontFamily=Times New Roman;fontColor=#000000;" parent="1" vertex="1">
          <mxGeometry x="530" y="465" width="100" height="30" as="geometry" />
        </mxCell>
        <mxCell id="I1iMSRY1QSNzKkPSF8va-33" value="Consumer3" style="rounded=1;whiteSpace=wrap;html=1;strokeColor=#000000;fontFamily=Times New Roman;fontColor=#000000;" parent="1" vertex="1">
          <mxGeometry x="530" y="500" width="100" height="30" as="geometry" />
        </mxCell>
        <mxCell id="I1iMSRY1QSNzKkPSF8va-37" value="" style="rounded=0;whiteSpace=wrap;html=1;dashed=1;dashPattern=8 8;strokeColor=#000000;fontFamily=Times New Roman;fontColor=#000000;" parent="1" vertex="1">
          <mxGeometry x="250" y="230" width="210" height="280" as="geometry" />
        </mxCell>
        <mxCell id="I1iMSRY1QSNzKkPSF8va-6" value="&lt;font&gt;&lt;font style=&quot;font-size: 14px;&quot;&gt;Broker 1&lt;br&gt;&lt;br&gt;&lt;br&gt;&lt;/font&gt;&lt;br&gt;&lt;/font&gt;" style="rounded=1;whiteSpace=wrap;html=1;fontFamily=Times New Roman;fontColor=#000000;strokeColor=#000000;" parent="1" vertex="1">
          <mxGeometry x="290" y="240" width="130" height="70" as="geometry" />
        </mxCell>
        <mxCell id="I1iMSRY1QSNzKkPSF8va-65" style="edgeStyle=none;shape=connector;rounded=0;orthogonalLoop=1;jettySize=auto;html=1;entryX=0;entryY=0.5;entryDx=0;entryDy=0;labelBackgroundColor=default;strokeColor=#000000;fontFamily=Times New Roman;fontSize=11;fontColor=#000000;endArrow=blockThin;endFill=1;" parent="1" source="I1iMSRY1QSNzKkPSF8va-7" target="I1iMSRY1QSNzKkPSF8va-27" edge="1">
          <mxGeometry relative="1" as="geometry" />
        </mxCell>
        <mxCell id="I1iMSRY1QSNzKkPSF8va-7" value="&lt;font&gt;Topic1-partition2&lt;/font&gt;" style="rounded=1;whiteSpace=wrap;html=1;strokeColor=#000000;fontFamily=Times New Roman;fontColor=#000000;" parent="1" vertex="1">
          <mxGeometry x="297.5" y="260" width="115" height="20" as="geometry" />
        </mxCell>
        <mxCell id="I1iMSRY1QSNzKkPSF8va-67" style="edgeStyle=none;shape=connector;rounded=0;orthogonalLoop=1;jettySize=auto;html=1;entryX=0;entryY=0.5;entryDx=0;entryDy=0;dashed=1;labelBackgroundColor=default;strokeColor=#000000;fontFamily=Times New Roman;fontSize=11;fontColor=#000000;endArrow=blockThin;endFill=1;exitX=1;exitY=0.5;exitDx=0;exitDy=0;" parent="1" source="I1iMSRY1QSNzKkPSF8va-9" target="I1iMSRY1QSNzKkPSF8va-31" edge="1">
          <mxGeometry relative="1" as="geometry" />
        </mxCell>
        <mxCell id="I1iMSRY1QSNzKkPSF8va-9" value="&lt;font&gt;Topic2-partition3&lt;/font&gt;" style="rounded=1;whiteSpace=wrap;html=1;strokeColor=#000000;fontFamily=Times New Roman;fontColor=#000000;" parent="1" vertex="1">
          <mxGeometry x="297.5" y="285" width="115" height="20" as="geometry" />
        </mxCell>
        <mxCell id="I1iMSRY1QSNzKkPSF8va-11" value="&lt;font&gt;&lt;font style=&quot;font-size: 14px;&quot;&gt;Broker 2&lt;br&gt;&lt;br&gt;&lt;br&gt;&lt;/font&gt;&lt;br&gt;&lt;br&gt;&lt;br&gt;&lt;/font&gt;" style="rounded=1;whiteSpace=wrap;html=1;fontFamily=Times New Roman;fontColor=#000000;strokeColor=#000000;" parent="1" vertex="1">
          <mxGeometry x="290" y="320" width="130" height="100" as="geometry" />
        </mxCell>
        <mxCell id="I1iMSRY1QSNzKkPSF8va-66" style="edgeStyle=none;shape=connector;rounded=0;orthogonalLoop=1;jettySize=auto;html=1;entryX=0;entryY=0.5;entryDx=0;entryDy=0;labelBackgroundColor=default;strokeColor=#000000;fontFamily=Times New Roman;fontSize=11;fontColor=#000000;endArrow=blockThin;endFill=1;exitX=1;exitY=0.5;exitDx=0;exitDy=0;" parent="1" source="I1iMSRY1QSNzKkPSF8va-12" target="I1iMSRY1QSNzKkPSF8va-27" edge="1">
          <mxGeometry relative="1" as="geometry" />
        </mxCell>
        <mxCell id="I1iMSRY1QSNzKkPSF8va-12" value="&lt;font&gt;Topic1-partition1&lt;/font&gt;" style="rounded=1;whiteSpace=wrap;html=1;strokeColor=#000000;fontFamily=Times New Roman;fontColor=#000000;" parent="1" vertex="1">
          <mxGeometry x="297.5" y="340" width="115" height="20" as="geometry" />
        </mxCell>
        <mxCell id="I1iMSRY1QSNzKkPSF8va-68" style="edgeStyle=none;shape=connector;rounded=0;orthogonalLoop=1;jettySize=auto;html=1;entryX=0;entryY=0.5;entryDx=0;entryDy=0;dashed=1;labelBackgroundColor=default;strokeColor=#000000;fontFamily=Times New Roman;fontSize=11;fontColor=#000000;endArrow=blockThin;endFill=1;exitX=1;exitY=0.5;exitDx=0;exitDy=0;" parent="1" source="I1iMSRY1QSNzKkPSF8va-13" target="I1iMSRY1QSNzKkPSF8va-32" edge="1">
          <mxGeometry relative="1" as="geometry" />
        </mxCell>
        <mxCell id="I1iMSRY1QSNzKkPSF8va-13" value="&lt;font&gt;Topic2-partition1&lt;/font&gt;" style="rounded=1;whiteSpace=wrap;html=1;strokeColor=#000000;fontFamily=Times New Roman;fontColor=#000000;" parent="1" vertex="1">
          <mxGeometry x="297.5" y="365" width="115" height="20" as="geometry" />
        </mxCell>
        <mxCell id="I1iMSRY1QSNzKkPSF8va-14" value="&lt;font&gt;&lt;font style=&quot;font-size: 14px;&quot;&gt;Broker 1&lt;br&gt;&lt;br&gt;&lt;br&gt;&lt;/font&gt;&lt;br&gt;&lt;/font&gt;" style="rounded=1;whiteSpace=wrap;html=1;fontFamily=Times New Roman;fontColor=#000000;strokeColor=#000000;" parent="1" vertex="1">
          <mxGeometry x="290" y="430" width="130" height="70" as="geometry" />
        </mxCell>
        <mxCell id="I1iMSRY1QSNzKkPSF8va-69" style="edgeStyle=none;shape=connector;rounded=0;orthogonalLoop=1;jettySize=auto;html=1;entryX=0;entryY=0.5;entryDx=0;entryDy=0;dashed=1;labelBackgroundColor=default;strokeColor=#000000;fontFamily=Times New Roman;fontSize=11;fontColor=#000000;endArrow=blockThin;endFill=1;exitX=1;exitY=0.5;exitDx=0;exitDy=0;" parent="1" source="I1iMSRY1QSNzKkPSF8va-15" target="I1iMSRY1QSNzKkPSF8va-33" edge="1">
          <mxGeometry relative="1" as="geometry" />
        </mxCell>
        <mxCell id="I1iMSRY1QSNzKkPSF8va-15" value="&lt;font&gt;Topic2-partition3&lt;/font&gt;" style="rounded=1;whiteSpace=wrap;html=1;strokeColor=#000000;fontFamily=Times New Roman;fontColor=#000000;" parent="1" vertex="1">
          <mxGeometry x="297.5" y="450" width="115" height="20" as="geometry" />
        </mxCell>
        <mxCell id="I1iMSRY1QSNzKkPSF8va-70" style="edgeStyle=none;shape=connector;rounded=0;orthogonalLoop=1;jettySize=auto;html=1;entryX=0;entryY=0.5;entryDx=0;entryDy=0;dashed=1;labelBackgroundColor=default;strokeColor=#000000;fontFamily=Times New Roman;fontSize=11;fontColor=#000000;endArrow=blockThin;endFill=1;exitX=1;exitY=0.5;exitDx=0;exitDy=0;" parent="1" source="I1iMSRY1QSNzKkPSF8va-16" target="I1iMSRY1QSNzKkPSF8va-25" edge="1">
          <mxGeometry relative="1" as="geometry" />
        </mxCell>
        <mxCell id="I1iMSRY1QSNzKkPSF8va-16" value="&lt;font&gt;Topic3-partition1&lt;/font&gt;" style="rounded=1;whiteSpace=wrap;html=1;strokeColor=#000000;fontFamily=Times New Roman;fontColor=#000000;" parent="1" vertex="1">
          <mxGeometry x="297.5" y="475" width="115" height="20" as="geometry" />
        </mxCell>
        <mxCell id="I1iMSRY1QSNzKkPSF8va-71" style="edgeStyle=none;shape=connector;rounded=0;orthogonalLoop=1;jettySize=auto;html=1;entryX=0;entryY=0.5;entryDx=0;entryDy=0;dashed=1;labelBackgroundColor=default;strokeColor=#000000;fontFamily=Helvetica;fontSize=11;fontColor=#000000;endArrow=blockThin;endFill=1;exitX=1;exitY=0.5;exitDx=0;exitDy=0;" parent="1" source="I1iMSRY1QSNzKkPSF8va-17" target="I1iMSRY1QSNzKkPSF8va-24" edge="1">
          <mxGeometry relative="1" as="geometry" />
        </mxCell>
        <mxCell id="I1iMSRY1QSNzKkPSF8va-17" value="&lt;font&gt;Topic3-partition2&lt;/font&gt;" style="rounded=1;whiteSpace=wrap;html=1;strokeColor=#000000;fontFamily=Times New Roman;fontColor=#000000;" parent="1" vertex="1">
          <mxGeometry x="297.5" y="391" width="115" height="20" as="geometry" />
        </mxCell>
        <mxCell id="I1iMSRY1QSNzKkPSF8va-49" style="edgeStyle=orthogonalEdgeStyle;rounded=0;orthogonalLoop=1;jettySize=auto;html=1;entryX=0;entryY=0.5;entryDx=0;entryDy=0;strokeColor=#000000;endArrow=blockThin;endFill=1;fontFamily=Times New Roman;fontColor=#000000;" parent="1" source="I1iMSRY1QSNzKkPSF8va-20" target="I1iMSRY1QSNzKkPSF8va-40" edge="1">
          <mxGeometry relative="1" as="geometry" />
        </mxCell>
        <mxCell id="I1iMSRY1QSNzKkPSF8va-20" value="&lt;font style=&quot;font-size: 15px;&quot;&gt;Producer 1&lt;/font&gt;" style="rounded=1;whiteSpace=wrap;html=1;fontFamily=Times New Roman;fontColor=#000000;strokeColor=#000000;" parent="1" vertex="1">
          <mxGeometry x="80" y="280" width="100" height="30" as="geometry" />
        </mxCell>
        <mxCell id="I1iMSRY1QSNzKkPSF8va-54" style="rounded=0;orthogonalLoop=1;jettySize=auto;html=1;entryX=0;entryY=0;entryDx=0;entryDy=0;endArrow=blockThin;endFill=1;strokeColor=#000000;exitX=1;exitY=0.5;exitDx=0;exitDy=0;dashed=1;fontFamily=Times New Roman;fontColor=#000000;" parent="1" source="I1iMSRY1QSNzKkPSF8va-35" target="I1iMSRY1QSNzKkPSF8va-44" edge="1">
          <mxGeometry relative="1" as="geometry" />
        </mxCell>
        <mxCell id="I1iMSRY1QSNzKkPSF8va-55" style="rounded=0;orthogonalLoop=1;jettySize=auto;html=1;entryX=0;entryY=0.5;entryDx=0;entryDy=0;exitX=1;exitY=0.5;exitDx=0;exitDy=0;dashed=1;endArrow=blockThin;endFill=1;strokeColor=#000000;fontFamily=Times New Roman;fontColor=#000000;" parent="1" source="I1iMSRY1QSNzKkPSF8va-34" target="I1iMSRY1QSNzKkPSF8va-43" edge="1">
          <mxGeometry relative="1" as="geometry" />
        </mxCell>
        <mxCell id="I1iMSRY1QSNzKkPSF8va-34" value="&lt;font style=&quot;font-size: 15px;&quot;&gt;Producer 3&lt;/font&gt;" style="rounded=1;whiteSpace=wrap;html=1;fontFamily=Times New Roman;fontColor=#000000;strokeColor=#000000;" parent="1" vertex="1">
          <mxGeometry x="80" y="395" width="100" height="30" as="geometry" />
        </mxCell>
        <mxCell id="I1iMSRY1QSNzKkPSF8va-53" style="edgeStyle=orthogonalEdgeStyle;rounded=0;orthogonalLoop=1;jettySize=auto;html=1;entryX=0;entryY=0.5;entryDx=0;entryDy=0;endArrow=blockThin;endFill=1;strokeColor=#000000;dashed=1;fontFamily=Times New Roman;fontColor=#000000;" parent="1" source="I1iMSRY1QSNzKkPSF8va-35" target="I1iMSRY1QSNzKkPSF8va-43" edge="1">
          <mxGeometry relative="1" as="geometry" />
        </mxCell>
        <mxCell id="I1iMSRY1QSNzKkPSF8va-35" value="&lt;font style=&quot;font-size: 15px;&quot;&gt;Producer 2&lt;/font&gt;" style="rounded=1;whiteSpace=wrap;html=1;fontFamily=Times New Roman;fontColor=#000000;strokeColor=#000000;" parent="1" vertex="1">
          <mxGeometry x="80" y="337.5" width="100" height="30" as="geometry" />
        </mxCell>
        <mxCell id="I1iMSRY1QSNzKkPSF8va-38" value="&lt;font style=&quot;font-size: 14px;&quot;&gt;Kafka Cluster&lt;/font&gt;" style="text;html=1;align=center;verticalAlign=middle;resizable=0;points=[];autosize=1;strokeColor=none;fillColor=none;fontFamily=Times New Roman;fontColor=#000000;" parent="1" vertex="1">
          <mxGeometry x="305" y="200" width="100" height="30" as="geometry" />
        </mxCell>
        <mxCell id="I1iMSRY1QSNzKkPSF8va-58" style="shape=connector;rounded=0;orthogonalLoop=1;jettySize=auto;html=1;entryX=0;entryY=0.5;entryDx=0;entryDy=0;labelBackgroundColor=default;strokeColor=#000000;fontFamily=Times New Roman;fontSize=11;fontColor=#000000;endArrow=blockThin;endFill=1;" parent="1" source="I1iMSRY1QSNzKkPSF8va-40" target="I1iMSRY1QSNzKkPSF8va-7" edge="1">
          <mxGeometry relative="1" as="geometry" />
        </mxCell>
        <mxCell id="I1iMSRY1QSNzKkPSF8va-59" style="edgeStyle=none;shape=connector;rounded=0;orthogonalLoop=1;jettySize=auto;html=1;entryX=0;entryY=0.5;entryDx=0;entryDy=0;labelBackgroundColor=default;strokeColor=#000000;fontFamily=Times New Roman;fontSize=11;fontColor=#000000;endArrow=blockThin;endFill=1;" parent="1" source="I1iMSRY1QSNzKkPSF8va-40" target="I1iMSRY1QSNzKkPSF8va-12" edge="1">
          <mxGeometry relative="1" as="geometry" />
        </mxCell>
        <mxCell id="I1iMSRY1QSNzKkPSF8va-40" value="" style="ellipse;whiteSpace=wrap;html=1;aspect=fixed;dashed=1;strokeColor=#000000;fontFamily=Times New Roman;fontColor=#000000;" parent="1" vertex="1">
          <mxGeometry x="245" y="290" width="10" height="10" as="geometry" />
        </mxCell>
        <mxCell id="I1iMSRY1QSNzKkPSF8va-60" style="edgeStyle=none;shape=connector;rounded=0;orthogonalLoop=1;jettySize=auto;html=1;entryX=0;entryY=0.5;entryDx=0;entryDy=0;labelBackgroundColor=default;strokeColor=#000000;fontFamily=Times New Roman;fontSize=11;fontColor=#000000;endArrow=blockThin;endFill=1;dashed=1;" parent="1" target="I1iMSRY1QSNzKkPSF8va-9" edge="1">
          <mxGeometry relative="1" as="geometry">
            <mxPoint x="250" y="353" as="sourcePoint" />
          </mxGeometry>
        </mxCell>
        <mxCell id="I1iMSRY1QSNzKkPSF8va-61" style="edgeStyle=none;shape=connector;rounded=0;orthogonalLoop=1;jettySize=auto;html=1;entryX=0;entryY=0.5;entryDx=0;entryDy=0;dashed=1;labelBackgroundColor=default;strokeColor=#000000;fontFamily=Times New Roman;fontSize=11;fontColor=#000000;endArrow=blockThin;endFill=1;" parent="1" target="I1iMSRY1QSNzKkPSF8va-13" edge="1">
          <mxGeometry relative="1" as="geometry">
            <mxPoint x="250" y="350" as="sourcePoint" />
          </mxGeometry>
        </mxCell>
        <mxCell id="I1iMSRY1QSNzKkPSF8va-62" style="edgeStyle=none;shape=connector;rounded=0;orthogonalLoop=1;jettySize=auto;html=1;entryX=0;entryY=0.5;entryDx=0;entryDy=0;dashed=1;labelBackgroundColor=default;strokeColor=#000000;fontFamily=Times New Roman;fontSize=11;fontColor=#000000;endArrow=blockThin;endFill=1;" parent="1" source="I1iMSRY1QSNzKkPSF8va-43" target="I1iMSRY1QSNzKkPSF8va-15" edge="1">
          <mxGeometry relative="1" as="geometry" />
        </mxCell>
        <mxCell id="I1iMSRY1QSNzKkPSF8va-43" value="" style="ellipse;whiteSpace=wrap;html=1;aspect=fixed;dashed=1;strokeColor=#000000;fontFamily=Times New Roman;fontColor=#000000;" parent="1" vertex="1">
          <mxGeometry x="245" y="347.5" width="10" height="10" as="geometry" />
        </mxCell>
        <mxCell id="I1iMSRY1QSNzKkPSF8va-63" style="edgeStyle=none;shape=connector;rounded=0;orthogonalLoop=1;jettySize=auto;html=1;entryX=0;entryY=0.5;entryDx=0;entryDy=0;dashed=1;labelBackgroundColor=default;strokeColor=#000000;fontFamily=Times New Roman;fontSize=11;fontColor=#000000;endArrow=blockThin;endFill=1;" parent="1" source="I1iMSRY1QSNzKkPSF8va-44" target="I1iMSRY1QSNzKkPSF8va-17" edge="1">
          <mxGeometry relative="1" as="geometry" />
        </mxCell>
        <mxCell id="I1iMSRY1QSNzKkPSF8va-64" style="edgeStyle=none;shape=connector;rounded=0;orthogonalLoop=1;jettySize=auto;html=1;entryX=0;entryY=0.5;entryDx=0;entryDy=0;dashed=1;labelBackgroundColor=default;strokeColor=#000000;fontFamily=Times New Roman;fontSize=11;fontColor=#000000;endArrow=blockThin;endFill=1;" parent="1" source="I1iMSRY1QSNzKkPSF8va-44" target="I1iMSRY1QSNzKkPSF8va-16" edge="1">
          <mxGeometry relative="1" as="geometry" />
        </mxCell>
        <mxCell id="I1iMSRY1QSNzKkPSF8va-44" value="" style="ellipse;whiteSpace=wrap;html=1;aspect=fixed;dashed=1;strokeColor=#000000;fontFamily=Times New Roman;fontColor=#000000;" parent="1" vertex="1">
          <mxGeometry x="245" y="405" width="10" height="10" as="geometry" />
        </mxCell>
        <mxCell id="I1iMSRY1QSNzKkPSF8va-45" value="&lt;font style=&quot;font-size: 11px;&quot;&gt;Topic1&lt;/font&gt;" style="text;html=1;align=center;verticalAlign=middle;resizable=0;points=[];autosize=1;strokeColor=none;fillColor=none;fontFamily=Times New Roman;fontColor=#000000;" parent="1" vertex="1">
          <mxGeometry x="195" y="270" width="60" height="30" as="geometry" />
        </mxCell>
        <mxCell id="I1iMSRY1QSNzKkPSF8va-47" value="&lt;font style=&quot;font-size: 11px;&quot;&gt;Topic2&lt;/font&gt;" style="text;html=1;align=center;verticalAlign=middle;resizable=0;points=[];autosize=1;strokeColor=none;fillColor=none;fontFamily=Times New Roman;fontColor=#000000;" parent="1" vertex="1">
          <mxGeometry x="195" y="327.5" width="60" height="30" as="geometry" />
        </mxCell>
        <mxCell id="I1iMSRY1QSNzKkPSF8va-48" value="&lt;font style=&quot;font-size: 11px;&quot;&gt;Topic3&lt;/font&gt;" style="text;html=1;align=center;verticalAlign=middle;resizable=0;points=[];autosize=1;strokeColor=none;fillColor=none;fontFamily=Times New Roman;fontColor=#000000;" parent="1" vertex="1">
          <mxGeometry x="195" y="405" width="60" height="30" as="geometry" />
        </mxCell>
      </root>
    </mxGraphModel>
  </diagram>
</mxfile>
